<?xml version="1.0" encoding="utf-8"?>
<!-- Generator: Adobe Illustrator 15.0.2, SVG Export Plug-In . SVG Version: 6.00 Build 0)  -->
<!DOCTYPE svg PUBLIC "-//W3C//DTD SVG 1.1//EN" "http://www.w3.org/Graphics/SVG/1.1/DTD/svg11.dtd">
<svg version="1.1" id="Layer_1" xmlns="http://www.w3.org/2000/svg" xmlns:xlink="http://www.w3.org/1999/xlink" x="0px" y="0px"
	 width="460px" height="300px" viewBox="0 0 460 300" enable-background="new 0 0 460 300" xml:space="preserve">
<path id="HI" fill="#D3D3D3" stroke="#FFFFFF" stroke-width="0.75" d="M116.428,259.351l0.96-1.76l1.121-0.161l0.16,0.4
	l-1.041,1.521H116.428z M121.469,257.512l3.042,1.279l1.041-0.16l0.799-1.92l-0.32-1.681l-2.081-0.24l-2,0.88L121.469,257.512z
	 M136.676,262.473l1.841,2.721l1.2-0.159l0.561-0.239l0.719,0.64l1.842-0.081l0.48-0.72l-1.441-0.88l-0.96-1.841l-1.041-1.763
	l-2.881,1.441L136.676,262.473z M146.68,266.875l0.641-0.962l2.321,0.481l0.321-0.24l3.041,0.32l-0.16,0.641l-1.281,0.719
	l-2.161-0.159L146.68,266.875L146.68,266.875z M149.321,269.436l0.961,1.921l1.521-0.561l0.16-0.799l-0.8-1.041l-1.841-0.161
	V269.436L149.321,269.436z M152.763,268.875l1.121-1.44l2.321,1.201l2.161,0.56l2.16,1.361v0.96l-1.76,0.88l-2.402,0.48l-1.2-0.721
	L152.763,268.875z M161.006,276.559l0.801-0.642l1.68,0.802l3.761,1.761l1.681,1.04l0.8,1.2l0.96,2.162l2.001,1.28l-0.16,0.641
	l-1.921,1.601l-2.081,0.72l-0.72-0.319l-1.521,0.88l-1.201,1.601l-1.121,1.44l-0.88-0.08l-1.76-1.28l-0.16-2.241l0.32-1.201
	l-0.8-2.8l-1.041-0.881l-0.08-1.28l1.121-0.481l1.041-1.52l0.24-0.48l-0.8-0.881L161.006,276.559L161.006,276.559z"/>
<path id="AK" fill="#D3D3D3" stroke="#FFFFFF" stroke-width="0.75" d="M79.292,226.858l-0.159,42.257l0.8,0.481l1.521,0.079
	l0.72-0.561h1.281l0.08,1.441l3.441,3.361l0.241,1.281l1.681-0.962l0.32-0.079l0.16-1.521l0.721-0.801l0.561-0.08l0.96-0.719
	l1.521,1.04l0.321,1.44l0.96,0.561l0.56,1.199l1.921,0.882l1.681,2.961l1.36,1.921l1.121,1.36l0.72,1.84l2.481,0.881l2.56,1.041
	l0.481,2.161l0.24,1.52l-0.479,1.68l-0.881,1.122l-0.8-0.4l-0.72-1.521l-1.36-0.72l-0.88-0.562l-0.4,0.4l0.72,1.361l0.08,1.841
	l-0.56,0.24l-0.961-0.961l-1.041-0.641l0.241,0.8l0.64,0.881l-0.4,0.4c0,0-0.4-0.161-0.641-0.479
	c-0.24-0.321-1.041-1.681-1.041-1.681l-0.48-1.122c0,0-0.16,0.641-0.48,0.482c-0.32-0.161-0.64-0.722-0.64-0.722l0.88-0.96
	l-0.72-0.721v-2.481h-0.4l-0.401,1.681l-0.56,0.24l-0.48-1.84l-0.32-1.841l-0.4-0.24l0.161,2.801v0.561l-0.72-0.641l-1.761-2.961
	l-1.041-0.241l-0.32-1.84l-0.801-1.44l-0.801-0.561v-1.12l1.041-0.642l-0.24-0.159l-1.281,0.32l-1.68-1.201l-1.281-1.44l-2.401-1.28
	l-2.001-1.28l0.64-1.601v-0.8l-0.88,0.8l-1.441,0.561l-1.84-0.561l-2.801-1.201H72.89l-0.32,0.241l-3.202-1.922l-1.041-0.16
	l-1.361-2.88l-1.76,0.159l-1.76,0.721l0.239,2.241l0.561-1.44l0.48,0.158l-0.72,2.162l1.601-1.36l0.32,0.8l-1.921,2.162l-0.64-0.161
	l-0.24-0.961l-0.64-0.399l-0.641,0.56l-1.36-0.88l-1.521,1.041l-0.88,1.04l-1.681,1.041l-2.321-0.081l-0.24-1.04l1.841-0.32v-0.64
	l-1.121-0.321l0.48-1.2l1.121-1.921v-0.881l0.08-0.399l2.161-1.119l0.48,0.64h1.361l-0.64-1.28l-1.841-0.161l-2.481,1.36
	l-1.201,1.681l-0.88,1.282l-0.56,1.119l-2.081,0.72l-1.521,1.282l-0.16,0.799l1.12,0.481l0.4,1.04l-1.36,1.601l-3.201,2.081
	l-3.842,2.081l-1.041,0.56l-2.641,0.561l-2.642,1.121l0.881,0.64l-0.72,0.721l-0.24,0.561l-1.36-0.481l-1.601,0.081l-0.401,1.119
	h-0.479l0.16-1.2l-1.761,0.641l-1.44,0.48l-1.681-0.64l-1.44,0.959h-1.6l-1.041,0.642l-0.8,0.398l-1.041-0.159l-1.28-0.561
	l-1.121,0.321l-0.48,0.479l-0.8-0.56v-0.961l1.52-0.642l3.122,0.321l2.161-0.8l1.041-1.041l1.44-0.319l0.88-0.4l1.361,0.08l0.8,0.64
	l0.48-0.161l1.12-1.359l1.521-0.48l1.681-0.32l0.64-0.16l0.32,0.24h0.4l0.64-1.841l2.001-0.72l0.96-1.841l1.121-2.241l0.8-0.72
	l0.16-1.281l-0.8,0.641l-1.681,0.319l-0.32-1.199l-0.641-0.16l-0.48,0.479l-0.08,1.441l-0.72-0.081l-0.72-2.881l-0.64,0.642
	l-0.56-0.242l-0.161-0.96l-2.001,0.08l-1.04,0.561l-1.281-0.16l0.72-0.72l0.24-1.28l-0.32-0.961l0.72-0.479l0.64-0.081l-0.32-0.881
	v-2.159l-0.48-0.482l-0.4,0.722H28.23l-0.72-0.64l-0.32-1.922l-1.041-1.761v-0.479l1.041-0.4l0.08-1.04l0.561-0.561l-0.4-0.241
	l-0.64,0.241l-0.561-1.36l0.48-2.481l2.241-1.602l1.281-0.8l0.96-1.841l1.36-0.641l1.281,0.561l0.16,1.201l1.201-0.16l1.601-1.201
	l0.8,0.32l0.48,0.32h0.801l1.12-0.641l0.4-2.16c0,0,0.16-1.44,0.48-1.681c0.32-0.24,0.48-0.481,0.48-0.481l-0.56-0.96l-1.281,0.4
	l-1.6,0.4l-0.96-0.241l-1.761-0.88l-2.481-0.079l-1.761-1.841l0.24-1.922l0.32-1.199l-1.04-0.881l-0.96-1.841l0.24-0.399
	l3.362-0.241h1.04l0.479,0.48h0.321l-0.08-0.801l1.92-0.32l1.28,0.16l0.721,0.561l-0.721,1.041l-0.24,0.72l1.36,0.8l2.481,0.881
	l0.881-0.479l-1.121-2.161l-0.48-1.602l0.48-0.399l-1.68-0.961l-0.241-0.56l0.241-0.801l-0.401-1.92l-1.44-2.321l-1.201-2.081
	l1.44-0.961h1.602l0.88,0.32l2.081-0.08l1.841-1.76l0.56-1.522l1.841-1.199l0.801,0.479l1.361-0.32l1.84-1.041l0.561-0.079l0.48,0.4
	l2.241-0.079l1.36-1.521h0.561l1.761,1.2l0.96,1.04l-0.24,0.561l0.32,0.56l0.801-0.799l1.921,0.159l0.16,1.841l0.96,0.721
	l3.522,0.32l3.121,2.081l0.721-0.48l2.561,1.28l1.041-0.32l0.96-0.4l2.401,0.961L79.292,226.858L79.292,226.858z M22.308,241.184
	l1.041,2.642l-0.081,0.479l-1.44-0.161l-0.88-1.999l-0.88-0.722h-1.2l-0.08-1.279l0.88-1.201l0.561,1.201l0.72,0.72L22.308,241.184z
	 M21.027,257.751l1.841,0.4l1.841,0.479l0.4,0.479l-0.8,1.842l-1.521-0.08l-1.68-1.762L21.027,257.751z M10.784,250.787l0.559,1.281
	l0.561,0.8l-0.561,0.4l-1.04-1.521v-0.961H10.784L10.784,250.787z M3.98,286.963l1.681-1.12l1.681-0.48l1.281,0.16l0.24,0.799
	l0.96,0.242l0.961-0.961l-0.161-0.8l1.361-0.32l1.44,1.28l-0.56,0.88l-2.161,0.561l-1.36-0.24l-1.841-0.56l-2.162,0.72l-0.8,0.16
	L3.98,286.963L3.98,286.963z M28.23,284.722l0.8,0.96l1.041-0.801l-0.72-0.64L28.23,284.722z M29.671,286.243l0.561-1.121
	l1.041,0.159l-0.401,0.962H29.671z M41.355,285.281l0.721,0.882l0.48-0.561l-0.4-0.961L41.355,285.281z M45.678,279.12l0.56,2.881
	l1.441,0.4l2.481-1.44l2.161-1.281l-0.8-1.2l0.239-1.201l-1.04,0.642l-1.44-0.4l0.8-0.562l0.96,0.4l1.921-0.88l0.24-0.72l-1.2-0.401
	l0.4-0.959l-1.361,0.959l-2.32,1.762l-2.401,1.44L45.678,279.12L45.678,279.12z M66.646,269.275l1.2-0.72l-0.479-0.881l-0.881,0.48
	L66.646,269.275z"/>
<path id="FL" fill="#D3D3D3" stroke="#FFFFFF" stroke-width="0.75" d="M377.195,219.663l1.121,3.623l1.848,4.823l2.64,4.643
	l1.842,3.121l2.4,2.722l2.001,1.84l0.801,1.44l-0.561,0.641l-0.4,0.641l1.441,3.682l1.44,1.439l1.281,2.642l1.761,2.881l2.239,4.083
	l0.642,3.762l0.24,5.921l0.32,0.881l-0.16,1.681l-1.2,0.641l0.158,0.96l-0.319,0.961l0.161,1.2l0.239,0.96l-1.36,1.602l-1.521,0.72
	l-1.92,0.081l-0.721,0.8l-1.2,0.479l-0.641-0.239l-0.56-0.48l-0.161-1.44l-0.399-1.682l-1.682-2.562l-1.759-1.119l-1.922-0.161
	l-0.4,0.641l-1.521-2.159l-0.32-1.763l-1.28-2l-0.881-0.561l-0.8,1.04l-0.881-0.159l-1.04-2.481l-1.441-1.921l-1.44-2.642
	l-1.28-1.521l-1.76-1.84l1.041-1.202l1.599-2.721l-0.079-0.8l-2.241-0.479l-0.801,0.32l0.161,0.319l1.279,0.479l-0.72,2.241
	l-0.4,0.24l-0.88-2l-0.641-2.402l-0.159-1.359l0.719-2.321v-4.722l-1.52-1.841l-0.641-1.521l-2.561-0.641l-0.96-0.32l-0.801-1.279
	l-1.681-0.802l-0.562-1.68l-1.359-0.481l-1.2-1.84l-2.081-0.721l-1.441-0.72h-1.279l-2.003,0.399l-0.078,0.96l0.4,0.481l-0.241,0.56
	l-1.521-0.08l-1.841,1.761l-1.761,0.96h-1.92l-1.602,0.641l-0.16-1.36l-0.8-0.96l-1.441-0.561l-0.8-0.72l-4.003-1.922l-3.761-0.88
	l-2.16,0.32l-2.962,0.239l-2.962,1.041l-1.721,0.304l-0.118-3.985l-1.281-0.96l-0.88-0.882l0.16-1.52l5.042-0.641l12.645-1.44
	l3.362-0.32l2.691,0.139l1.279,1.921l0.722,0.72l4.009,0.257l5.357-0.321l10.649-0.641l2.695-0.334l2.529,0.102l0.211,1.441
	l1.105,0.4l0.116-2.293l-0.757-2.066l0.647-0.712l2.75,0.225L377.195,219.663L377.195,219.663z M383.406,285.214l1.2-0.321
	l0.641-0.119l0.72-1.161l1.161-0.801l0.641,0.24l0.84,0.16l0.201,0.521l-1.722,0.6l-2.081,0.722l-1.159,0.599L383.406,285.214
	L383.406,285.214z M390.089,282.732l0.601,0.52l1.361-1.041l2.641-2.08l1.841-1.921l1.24-3.281l0.48-0.84l0.08-1.681l-0.36,0.239
	l-0.48,1.4l-0.721,2.281l-1.6,2.602l-2.161,2.081l-1.682,0.96L390.089,282.732L390.089,282.732z"/>
<path id="NH" fill="#D3D3D3" stroke="#FFFFFF" stroke-width="0.75" d="M437.09,72.767l0.431-0.532l0.54-1.629l-1.26-0.453
	l-0.239-1.521l-1.922-0.56l-0.159-1.36l-3.602-11.605l-2.278-7.2l-0.444-0.002l-0.319,0.8l-0.321-0.24l-0.479-0.48l-0.72,0.96
	l-0.024,2.491l0.154,2.806l0.96,1.361v2l-1.84,2.507l-1.281,0.561v0.56l0.561,0.881v4.242l-0.401,4.562l-0.079,2.401l0.48,0.641
	l-0.08,2.241l-0.239,0.88l0.479,0.351l8.311-2.191l1.077-0.298l0.912-1.373L437.09,72.767L437.09,72.767z"/>
<g id="MI">
	<path id="MI-" fill="#D3D3D3" stroke="#FFFFFF" stroke-width="0.75" d="M346.523,90.001l-1.602-4.082l-1.121-4.482l-1.199-1.6
		l-1.28-0.88l-0.801,0.56l-1.921,0.88l-0.961,2.481l-1.36,1.841l-0.56,0.32l-0.722-0.32c0,0-1.279-0.72-1.2-1.04
		c0.081-0.32,0.24-2.481,0.24-2.481l1.682-0.641l0.399-1.68l0.32-1.281l1.2-0.8l-0.16-4.962l-0.801-1.121l-0.64-0.4l-0.4-1.041
		l0.4-0.4l0.801,0.16l0.079-0.8l-1.199-1.12l-0.641-1.281h-1.281l-2.239-0.72l-2.723-1.681h-1.36l-0.319,0.32l-0.481-0.24
		l-1.521-1.121l-1.439,0.88l-1.441,1.12l0.16,1.761l0.48,0.16l1.04,0.24l0.239,0.4l-1.279,0.4l-1.28,0.16l-0.721,0.881l-0.16,1.041
		l0.16,0.8l0.159,2.721l-1.76,1.041l-0.321-0.08v-2.081l0.641-1.201l0.32-1.2l-0.399-0.401l-0.962,0.401l-0.479,2.081l-1.36,0.56
		l-0.882,0.961l-0.078,0.48l0.318,0.4l-0.318,1.28l-1.121,0.241v0.561l0.399,1.2l-0.561,3.042l-0.799,2.001l0.319,2.321l0.24,0.561
		l-0.4,1.2l-0.159,0.4l-0.161,1.36l1.761,2.962l1.441,3.201l0.72,2.401l-0.4,2.321l-0.479,2.961l-1.2,2.561l-0.161,1.36
		l-1.612,1.528l2.183-0.08l10.603-1.121l3.604-0.488l0.048,0.825l3.392-0.6l5.1-0.744l1.907-0.229l0.068-0.291l0.08-0.72l1.04-1.841
		l0.99-0.861l-0.109-2.5l0.79-0.791l0.54-0.169l0.11-1.761l0.76-1.5l0.521,0.3l0.08,0.32l0.4,0.08l0.96-0.481L346.523,90.001
		L346.523,90.001z"/>
	<path id="SP-" fill="#D3D3D3" stroke="#FFFFFF" stroke-width="0.75" d="M288.975,42.882l0.906-1.02l1.074-0.396l2.662-1.924
		l1.131-0.283l0.227,0.226l-2.548,2.547l-1.641,0.962l-1.018,0.452L288.975,42.882L288.975,42.882z M331.639,58.787l0.319,1.241
		l1.601,0.081l0.64-0.601c0,0-0.04-0.721-0.199-0.8c-0.16-0.08-0.8-0.92-0.8-0.92l-1.082,0.12l-0.8,0.08l-0.161,0.56L331.639,58.787
		L331.639,58.787z M281.98,57.315l0.355-0.288l1.36-0.4l1.761-1.121v-0.48l0.32-0.32l2.962-0.48l1.199-0.961l2.162-1.041l0.079-0.64
		l0.961-1.441l0.881-0.399l0.64-0.88l1.121-1.121l2.16-1.2l2.321-0.24l0.561,0.561l-0.161,0.48l-1.84,0.48l-0.72,1.521l-1.122,0.4
		l-0.239,1.201l-1.201,1.6l-0.158,1.281l0.399,0.24l0.479-0.561l1.76-1.44l0.642,0.641h1.121l1.6,0.48l0.721,0.561l0.72,1.52
		l1.36,1.361l1.921-0.081l0.721-0.48l0.8,0.64l0.801,0.241l0.641-0.4h0.56l0.801-0.48l2.001-1.761l1.681-0.559l3.281-0.16
		l2.24-0.961l1.281-0.64l0.721,0.08v2.801l0.239,0.16l1.441,0.4l0.961-0.24l3.04-0.801l0.561-0.56l0.72,0.24v3.441l1.601,1.521
		l0.641,0.32l0.64,0.48l-0.64,0.16l-0.4-0.16l-1.841-0.24l-1.039,0.32l-1.121-0.08l-1.602,0.72h-0.88l-2.882-0.64l-2.56,0.08
		l-0.962,1.28l-3.44,0.32l-1.2,0.4l-0.561,1.521l-0.642,0.56l-0.239-0.08l-0.72-0.8l-2.24,1.2h-0.321l-0.561-0.799l-0.4,0.08
		l-0.96,2.161l-0.479,2.001l-1.577,3.466l-0.582-0.512l-0.679-0.511l-0.961-5.093l-1.754-0.679l-1.017-1.131l-6.001-1.358
		l-1.413-0.51l-4.074-1.076l-3.907-0.566L281.98,57.315L281.98,57.315z"/>
</g>
<path id="VT" fill="#D3D3D3" stroke="#FFFFFF" stroke-width="0.75" d="M419.111,78.526l0.157-2.647l-1.431-5.338l-0.32-0.16
	l-1.44-0.64l0.4-1.441l-0.4-1.041l-1.337-2.296l0.48-1.921l-0.4-2.562l-1.201-3.201l-0.399-2.437l13.081-3.333l0.152,2.734
	l0.948,1.358v2l-1.835,2.505l-1.28,0.566l-0.006,0.554l0.649,0.752l-0.154,4.009l-0.302,4.583l-0.113,2.751l0.481,0.641
	l-0.081,2.262l-0.24,0.837l0.502,0.36l-3.682,0.746L419.111,78.526L419.111,78.526z"/>
<path id="ME" fill="#D3D3D3" stroke="#FFFFFF" stroke-width="0.75" d="M457.903,41.284l0.96,1.04l1.121,1.841v0.961l-1.04,2.32
	l-0.96,0.32l-1.681,1.521l-2.402,2.721c0,0-0.318,0-0.641,0c-0.32,0-0.479-1.041-0.479-1.041l-0.882,0.08l-0.479,0.721l-1.201,0.72
	l-0.479,0.72l0.8,0.72l-0.239,0.32l-0.24,1.361l-0.961-0.08v-0.801l-0.16-0.64l-0.72,0.16l-0.88-1.601l-1.04,0.64l0.64,0.721
	l0.159,0.561l-0.4,0.64l0.16,1.521l0.081,0.8l-0.801,1.281l-1.44,0.24l-0.16,1.441l-2.642,1.52l-0.64,0.24l-0.8-0.719l-1.521,1.76
	l0.48,1.601l-0.721,0.64l-0.079,2.161l-0.558,3.099l-1.218-0.573l-0.24-1.521l-1.921-0.56l-0.16-1.36l-3.603-11.605l-2.325-7.248
	l0.703-0.059l0.75,0.203v-1.281l0.647-2.226l1.28-2.321l0.72-2l-0.96-1.201v-2.96l0.4-0.48l0.4-1.361l-0.08-0.72l-0.08-2.401
	l0.88-2.401l1.441-4.402l1.04-2.081h0.64l0.642,0.08v0.56l0.64,1.121l1.36,0.32l0.4-0.4v-0.48l2.001-1.44l0.879-0.88l0.722,0.08
	l2.961,1.2l0.961,0.48l4.481,14.806h2.961l0.4,0.96l0.08,2.401l1.441,1.121h0.399l0.079-0.24l-0.239-0.561L457.903,41.284
	L457.903,41.284z M447.541,56.208l0.76-0.76l0.681,0.52l0.28,1.201l-0.842,0.44L447.541,56.208z M450.862,53.287l0.881,0.921
	c0,0,0.64,0.04,0.64-0.12c0-0.16,0.121-1.001,0.121-1.001l0.438-0.399l-0.399-0.88l-1.001,0.36L450.862,53.287z"/>
<path id="RI" fill="#D3D3D3" stroke="#FFFFFF" stroke-width="0.75" d="M433.759,90.822l-1.83-7.404l3.104-0.913l1.085,0.954
	l1.637,2.139l1.333,2.18l-1.486,0.804l-0.64-0.08l-0.562,0.88l-1.2,0.96L433.759,90.822L433.759,90.822z"/>
<path id="NY" fill="#D3D3D3" stroke="#FFFFFF" stroke-width="0.75" d="M412.13,95.699l-0.562-0.48l-1.279-0.08l-1.121-0.961
	l-0.808-3.034l-1.713,0.045l-1.209-1.341l-9.598,2.169l-21.288,4.322l-3.729,0.607l-0.365-3.202l0.707-0.557l0.641-0.56l0.479-0.8
	l0.881-0.56l0.961-0.881l0.239-0.8l1.04-1.36l0.561-0.48l-0.078-0.48l-0.642-1.521l-0.881-0.079l-0.959-3.042l1.441-0.88l2.159-0.72
	l2.002-0.64l1.599-0.24l3.123-0.08l0.96,0.641l0.801,0.08l1.04-0.641l1.28-0.561l2.561-0.24l1.041-0.88l0.88-1.601l0.801-0.96h1.041
	l0.96-0.56l0.08-1.121l-0.721-1.041l-0.16-0.72l0.561-1.04v-0.721h-0.88l-0.881-0.4l-0.4-0.561l-0.08-1.281l2.882-2.721l0.319-0.4
	l0.721-1.441l1.441-2.24l1.36-1.841l1.04-1.2l1.195-0.903l1.525-0.617l2.722-0.641l1.6,0.08l2.241-0.72l3.746-1.025l0.257,2.465
	l1.201,3.202l0.399,2.561l-0.48,1.921l1.281,2.241l0.399,1.04l-0.399,1.44l1.44,0.641l0.32,0.161l1.521,5.441l-0.266,2.506
	l-0.24,5.361l0.4,2.722l0.4,1.761l0.72,3.601v4.002l-0.561,1.12l0.911,0.987l0.395,0.831l-0.961,0.88l0.16,0.641l0.641-0.161
	l0.721-0.64l1.12-1.281l0.56-0.32l0.802,0.32l1.119,0.081l3.922-1.921l1.44-1.36l0.641-0.721l2.08,0.8l-1.68,1.761l-1.92,1.441
	l-3.522,2.641l-1.28,0.48l-2.881,0.961l-2.002,0.56l-0.581-0.264l-0.12-1.825l0.239-1.361l-0.08-1.041l-1.393-0.841l-2.24-0.481
	l-1.922-0.56L412.13,95.699L412.13,95.699z"/>
<path id="PA" fill="#D3D3D3" stroke="#FFFFFF" stroke-width="0.75" d="M409.526,113.495l0.648-0.135l1.153-0.62l0.601-1.229
	l0.8-1.12l1.6-1.521v-0.4l-1.199-0.801l-1.761-1.2l-0.48-1.28l-1.361-0.16l-0.079-0.561l-0.4-1.36l1.12-0.56l0.081-1.201
	l-0.641-0.64l0.08-0.8l0.96-1.521v-1.521l1.335-1.31l-0.455-0.334l-1.249-0.096l-1.137-0.959l-0.768-3.028l-1.735,0.05l-1.215-1.338
	l-8.956,2.077l-21.288,4.322l-4.403,0.721l-0.306-3.229l-2.655,2.508l-0.64,0.241l-2.081,1.489l1.44,9.475l1.229,4.817l1.769,9.536
	l1.619-0.316l5.912-0.744l18.776-3.794l7.365-1.398l4.11-0.804l0.131-0.118l1.04-0.8L409.526,113.495L409.526,113.495z"/>
<path id="NJ" fill="#D3D3D3" stroke="#FFFFFF" stroke-width="0.75" d="M411.783,95.557l-1.15,1.354v1.521l-0.961,1.52l-0.079,0.8
	l0.64,0.641l-0.08,1.201l-1.12,0.56l0.399,1.361l0.08,0.56l1.361,0.16l0.479,1.281l1.762,1.201l1.199,0.8v0.4l-1.476,1.335
	l-0.801,1.121l-0.721,1.36l-1.121,0.64l-0.228,0.794l-0.12,0.6l-0.302,1.291l0.54,1.111l1.602,1.441l2.4,1.12l2,0.321l0.081,0.72
	l-0.399,0.48l0.16,1.36h0.398l1.04-1.2l0.4-2.401l1.361-2.001l1.521-3.201l0.561-2.721l-0.321-0.561l-0.079-4.642l-0.8-1.681
	l-0.562,0.4l-1.359,0.161l-0.239-0.24l0.559-0.48l1.04-0.96l0.032-0.542l-0.19-1.7l0.284-1.36l-0.059-0.976l-1.39-0.866
	l-2.521-0.582l-2.05-0.684L411.783,95.557L411.783,95.557z"/>
<path id="DE" fill="#D3D3D3" stroke="#FFFFFF" stroke-width="0.75" d="M409.776,115.271l0.182-1.063l0.186-0.837l-0.803,0.197
	l-0.8,0.232l-1.093,0.874l0.852,2.497l1.12,2.801l1.041,4.802l0.801,3.121l2.481-0.08l3.039-0.584l-1.12-3.657l-0.48,0.24
	l-1.76-1.201l-0.882-2.321l-0.96-1.761l-1.558-1.42l-0.428-1.039L409.776,115.271L409.776,115.271z"/>
<path id="MD" fill="#D3D3D3" stroke="#FFFFFF" stroke-width="0.75" d="M416.788,127.22l-2.974,0.596l-2.546,0.058l-0.913-3.427
	l-0.953-4.539l-1.273-3.064l-0.639-2.177l-3.715,0.803l-7.365,1.397l-18.541,3.738l0.56,2.481l0.481,2.801l0.159-0.159l1.04-1.201
	l1.121-1.296l1.201-0.304l0.72-0.721l0.88-1.28l0.641,0.32l1.44-0.16l1.281-1.04l0.993-0.72l0.914-0.24l0.813,0.559l1.441,0.721
	l0.959,0.88l0.602,0.76l2.04,0.84v1.441l2.721,0.64l0.566,0.269l0.699-1.004l1.427,0.976l-0.633,1.229l-0.379,1.973l-0.879,1.281
	v1.041l0.319,0.88l2.507,0.671l2.134-0.031l1.521,0.48l1.041,0.16l0.479-1.041l-0.72-1.04v-0.88l-1.2-1.041l-1.04-2.721l0.64-2.641
	l-0.08-1.04l-0.641-0.641c0,0,0.721-0.8,0.721-1.12c0-0.32,0.239-1.041,0.239-1.041l0.962-0.64l0.96-0.8l0.24,0.48l-0.721,0.8
	l-0.64,1.841l0.16,0.56l0.88,0.16l0.239,2.722l-1.04,0.48l0.161,1.76l0.239-0.08l0.562-0.961l0.799,0.881l-0.799,0.641l-0.161,1.68
	l1.28,1.681l1.922,0.24l0.799-0.4l1.604,2.071l0.672,0.265l3.294-1.385l0.994-1.992L416.788,127.22L416.788,127.22z
	 M408.883,131.689l0.561,1.241l0.079,0.88l0.562,0.92c0,0,0.439-0.44,0.439-0.601s-0.36-1.521-0.36-1.521l-0.36-1.161
	L408.883,131.689L408.883,131.689z"/>
<path id="VA" fill="#D3D3D3" stroke="#FFFFFF" stroke-width="0.75" d="M412.753,133.979l-0.072-0.964l3.195-1.262l-0.381,1.593
	l-1.446,1.871l-0.206,2.271l0.229,1.678l-0.904,2.465l-1.071,0.948l-0.729-2.298l0.221-2.697l0.787-2.071L412.753,133.979
	L412.753,133.979z M414.406,147.991l-28.801,6.225l-18.529,2.614l-3.306-0.186l-1.279,0.953l-3.634,0.109l-4.149,0.484l-5.403,0.799
	l5.182-2.778l-0.005-1.026l0.752-1.062l5.225-5.695l1.954,2.217l1.873,0.477l1.259-0.563l1.106-0.649l1.258,0.665l1.938-0.707
	l0.928-2.256l1.289,0.267l1.414-1.054l0.89,0.244l1.399-1.819l0.173-1.032l-0.477-0.632l0.495-0.924l2.612-6.078l0.305-2.839
	l0.608-0.259l1.079,1.21l1.948-0.149l0.955-3.75l1.384-0.277l0.519-1.357l1.277-1.161l1.371-2.82l0.043-2.51l4.862,1.893
	c0.338,0.169,0.413-2.5,0.413-2.5l1.809,0.792l0.033,1.455l2.863,0.643l1.057,0.583l0.822,1.018l-0.325,1.806l-0.963,1.283
	l0.055,1.019l0.291,0.917l2.464,0.627l2.204,0.02l1.52,0.474l0.962,0.154l0.354,1.529l1.579,0.199l0.43,0.595l-0.218,2.322
	l0.681,0.545L408.714,139l0.609,0.391l-0.11,0.686l-1.334-0.047l0.045,0.799l1.129,0.764l0.06,0.699l0.879,0.884l0.242,1.25
	l-1.264,0.684l0.778,0.74l2.872-0.834L414.406,147.991L414.406,147.991z"/>
<path id="WV" fill="#D3D3D3" stroke="#FFFFFF" stroke-width="0.75" d="M377.873,120.562l0.551,2.447l0.537,2.987l1.055-1.278
	l1.12-1.52l1.256-0.305l0.721-0.72l0.88-1.281l0.716,0.32l1.44-0.16l1.28-1.041l0.993-0.719l0.915-0.241l0.645,0.504l1.804,0.902
	l0.961,0.88l0.68,0.64l-0.377,2.75l-2.889-1.258l-2.102-0.803l-0.051,2.564l-1.36,2.741l-1.251,1.201l-0.59,1.361l-1.311,0.248
	l-0.443,1.783l-0.518,1.956l-1.964,0.169l-1.151-1.208l-0.529,0.277l-0.313,2.708l-0.668,1.75l-2.455,5.424l0.444,0.575
	l-0.102,0.944l-1.391,1.923l-0.896-0.27l-1.469,1.069l-1.26-0.283l-0.989,2.256c0,0-1.613,0.708-1.941,0.677
	c-0.08-0.008-1.223-0.619-1.223-0.619l-1.156,0.683l-1.193,0.518l-1.854-0.441l-0.557-0.578l-1.085-1.497l-1.555-0.984l-0.848-1.794
	l-2.122-1.717l-0.319-1.12l-1.28-0.72l-0.4-0.8l-0.119-2.601l1.079-0.041l0.961-0.4l0.079-1.36l0.801-0.72l0.081-2.481l0.479-1.921
	l0.642-0.32l0.64,0.56l0.24,0.88l0.881-0.48l0.24-0.8l-0.562-0.88v-1.2l0.481-0.641l1.12-1.68l0.641-0.721l1.04,0.241l1.12-0.8
	l1.521-1.681l1.121-1.921l0.161-2.801l0.239-2.481v-2.32l-0.562-1.521l0.48-0.72l0.636-0.641l1.729,9.816l2.293-0.372
	L377.873,120.562L377.873,120.562z"/>
<path id="OH" fill="#D3D3D3" stroke="#FFFFFF" stroke-width="0.75" d="M365.071,97.968l-3.017,2.007l-1.922,1.12l-1.681,1.841
	l-2,1.921l-1.602,0.4l-1.44,0.24l-2.721,1.281l-1.041,0.08l-1.681-1.521l-2.562,0.32l-1.279-0.72l-1.18-0.669l-2.422,0.348
	l-5.042,0.8l-5.549,1.082l0.641,7.243l0.88,6.803l1.282,11.604l0.279,2.392l2.041-0.064l1.199-0.4l1.666,0.744l1.026,2.161
	l2.542-0.008l0.938,1.048l0.872-0.032l1.256-0.665l1.241,0.184l2.683,0.239l0.854-1.056l1.162-0.64l1.025-0.337l0.319,1.36
	l0.882,0.48l1.72,1.161l1.081-0.041l0.66-0.244l0.091-1.367l0.784-0.72l0.05-2.373l0.506-2.034l0.646-0.298l0.653,0.568l0.267,0.84
	l0.851-0.514l0.217-0.723l-0.554-0.942l0.033-1.146l0.371-0.531l1.065-1.637l0.521-0.764l1.04,0.24l1.12-0.801l1.521-1.68
	l1.371-2.02l0.159-2.502l0.24-2.481l-0.089-2.627l-0.471-1.433l0.173-0.589l0.893-0.866l-1.133-4.479L365.071,97.968L365.071,97.968
	z"/>
<path id="IN" fill="#D3D3D3" stroke="#FFFFFF" stroke-width="0.75" d="M307.763,150.764l0.033-1.416l0.239-2.24l1.121-1.441
	l0.881-1.921l1.28-2.081l-0.24-2.881l-0.88-1.36l-0.16-1.601l0.4-2.721l-0.24-3.441l-0.641-7.923l-0.641-7.604l-0.48-5.801
	l1.52,0.439l0.721,0.48l0.561-0.16l1.04-0.96l1.402-0.801l2.521-0.08l10.885-1.121l2.76-0.264l0.745,7.899l2.104,18.239l0.297,2.857
	l-0.185,1.12l0.609,0.889l0.047,0.679l-1.248,0.792l-1.752,0.768l-1.586,0.272l-0.296,2.41l-2.265,1.64l-1.385,1.986l0.161,1.176
	l-0.289,0.759h-1.647l-0.784-0.8l-1.234,0.625l-1.329,0.744l0.082,1.512l-0.593,0.128l-0.231-0.504l-1.072-0.744l-1.609,0.663
	l-0.769,1.489l-0.712-0.4l-0.72-0.792l-2.209,0.24l-2.77,0.48L307.763,150.764L307.763,150.764z"/>
<path id="IL" fill="#D3D3D3" stroke="#FFFFFF" stroke-width="0.75" d="M307.749,150.947l0.016-1.599l0.28-2.3l1.156-1.443
	l0.923-2.018l1.106-1.978l-0.185-2.6l-0.992-1.754l-0.048-1.656l0.344-2.609l-0.409-3.555l-0.527-7.811l-0.64-7.435l-0.458-5.763
	l-0.134-0.456l-0.4-1.281l-0.64-1.841l-0.8-0.88l-0.722-1.281l-0.115-2.717l-22.673,1.286l0.113,1.175l1.131,0.339l0.454,0.566
	l0.226,0.905l1.925,1.698l0.34,1.131l-0.34,1.698l-0.906,1.811l-0.339,1.245l-1.132,0.905l-0.906,0.339l-2.603,0.68l-0.339,0.905
	l-0.34,1.018l0.34,0.68l0.905,0.792l-0.113,2.038l-0.906,0.792l-0.34,0.792v1.358l-0.904,0.226l-0.793,0.566l-0.113,0.679
	l0.113,1.019l-0.848,0.65l-0.511,1.387l0.227,1.811l1.132,3.622l3.622,3.735l2.717,1.812l-0.113,2.15l0.453,0.679l3.168,0.227
	l1.359,0.679l-0.34,1.812l-1.132,2.942l-0.34,1.584l1.133,1.924l3.167,2.603l2.266,0.34l1.018,2.489l1.019,1.585l-0.453,1.472
	l0.793,2.037l0.905,1.02l0.7-0.438l0.449-1.026l1.096-0.865l1.056-0.305l1.288,0.585l1.796,0.682l0.589-0.148l0.099-1.119
	l-0.637-1.192l0.149-1.178l0.911-0.667l1.496-0.401l0.625-0.227l-0.305-0.687l-0.391-1.165l0.71-0.485L307.749,150.947
	L307.749,150.947z"/>
<path id="CT" fill="#D3D3D3" stroke="#FFFFFF" stroke-width="0.75" d="M433.758,90.806l-1.82-7.366l-2.336,0.456l-10.51,2.348
	l0.495,1.597l0.721,3.601l0.088,4.439l-0.605,1.077l0.952,0.957l2.115-1.934l1.759-1.601l0.962-1.04l0.399,0.32l1.36-0.72
	l2.562-0.56L433.758,90.806L433.758,90.806z"/>
<path id="WI" fill="#D3D3D3" stroke="#FFFFFF" stroke-width="0.75" d="M305.534,99.968l-0.034-1.562l-0.583-2.242l-0.32-3.041
	l-0.561-1.201l0.48-1.521l0.4-1.44l0.721-1.281L305.316,86l-0.319-1.761l0.24-0.88l0.96-1.201l0.08-1.36l-0.4-0.64l0.32-1.28
	l-0.224-2.065l1.359-2.801l1.441-3.361l0.081-1.121l-0.161-0.48l-0.4,0.241l-2.08,3.121l-1.36,2l-0.96,0.881l-0.401,1.12l-0.967,0.4
	l-0.56,0.96l-0.722-0.16l-0.08-0.88l0.641-1.201l1.04-2.321l0.881-0.8l0.49-1.167l-1.269-0.941l-0.976-5.132l-1.758-0.665
	l-0.964-1.143l-6.005-1.347l-1.423-0.501l-4.066-1.073l-3.92-0.574l-1.863-2.54l-0.372,0.274l-0.593-0.079l-0.321-0.561
	l-0.659,0.146l-0.561,0.08l-0.881,0.48l-0.479-0.32l0.319-0.961l0.96-1.52l0.56-0.561l-0.959-0.719l-1.04,0.399l-1.441,0.961
	l-3.682,1.601l-1.44,0.32l-1.441-0.24l-0.484-0.436l-1.048,1.403l-0.114,1.358v4.188l-0.564,0.793l-2.604,1.923l-1.132,2.943
	l0.226,0.113l1.244,1.019l0.341,1.584l-0.906,1.585v1.924l0.228,3.282l1.471,1.472h1.697l0.906,1.584l1.697,0.226l1.924,2.83
	l3.51,2.037l1.018,1.358l0.454,3.679l0.339,1.642l1.131,0.792l0.113,0.679l-1.019,1.697l0.114,1.585l1.245,1.924l1.244,0.566
	l1.471,0.226l0.665,0.683L305.534,99.968L305.534,99.968z"/>
<path id="NC" fill="#D3D3D3" stroke="#FFFFFF" stroke-width="0.75" d="M414.408,147.963l1.031,2.435l1.761,3.201l1.201,1.201
	l0.318,1.12l-1.199,0.081l0.4,0.319l-0.16,2.08l-1.28,0.642l-0.32,1.04l-0.64,1.441l-1.842,0.799l-1.2-0.159l-0.72-0.081
	l-0.801-0.64l0.16,0.64v0.481h0.96l0.4,0.64l-0.96,3.121h2.081l0.318,0.801l1.121-1.12l0.641-0.24l-0.961,1.76l-1.52,2.401h-0.641
	l-0.561-0.239l-1.36,0.319l-2.562,1.201l-3.2,2.642l-1.682,2.32l-0.96,3.2l-0.24,1.201l-2.32,0.24l-2.7,0.661l-4.925-4.06
	l-6.242-3.762l-1.44-0.4l-6.243,0.721l-2.117,0.371l-0.8-1.602l-1.471-1.048l-8.164,0.241l-3.6,0.399l-4.483,2.24l-3.041,1.281
	l-10.484,1.281l0.247-2.008l0.881-0.722l1.361-0.318l0.319-1.841l2.081-1.361l1.92-0.72l2.082-1.762l2.16-1.04l0.32-1.521
	l1.921-1.92l0.321-0.08c0,0,0,0.559,0.398,0.559c0.4,0,0.962,0.161,0.962,0.161l1.119-1.761l1.04-0.319l1.122,0.159l0.8-1.761
	l1.44-1.28l0.241-1.041l0.093-1.806l2.117-0.012l3.562-0.423l7.803-1.115l7.493-1.033l10.714-2.337l9.893-2.108l5.533-1.191
	L414.408,147.963L414.408,147.963z M416.521,164.402l1.28-1.239l1.562-1.281l0.759-0.319l0.081-1l-0.32-3.042l-0.72-1.16
	l-0.321-0.921l0.361-0.119l1.36,2.721l0.2,2.2l-0.08,1.682l-1.681,0.759l-1.4,1.201l-0.562,0.6L416.521,164.402L416.521,164.402z"/>
<path id="DC" fill="#D3D3D3" stroke="#FFFFFF" stroke-width="0.75" d="M399.97,126.442l-0.92-0.903l-0.61-0.34l0.715-1l1.431,0.964
	L399.97,126.442L399.97,126.442z"/>
<path id="MA" fill="#D3D3D3" stroke="#FFFFFF" stroke-width="0.75" d="M446.409,88.029l1.075-0.34l0.228-0.849l0.509,0.057
	l0.51,1.131l-0.623,0.227l-1.924,0.056L446.409,88.029L446.409,88.029z M441.77,88.425l1.132-1.302h0.792l0.906,0.736l-1.189,0.509
	l-1.075,0.509L441.77,88.425L441.77,88.425z M424.542,77.54l8.735-2.297l1.121-0.32l0.947-1.383l1.85-0.824l1.431,2.185
	l-1.201,2.561l-0.159,0.721l0.96,1.281l0.561-0.4h0.88l1.121,1.281l1.921,2.96l1.76,0.241l1.122-0.48l0.88-0.881l-0.4-1.36
	l-1.041-0.8l-0.721,0.4l-0.479-0.64l0.239-0.241l1.041-0.08l0.881,0.399l0.96,1.201l0.48,1.441l0.16,1.2l-2.081,0.721l-1.921,0.96
	l-1.92,2.241l-0.961,0.72v-0.48l1.2-0.721l0.24-0.88l-0.4-1.521l-1.44,0.721l-0.4,0.72l0.24,1.121l-1.023,0.495l-1.36-2.241
	l-1.681-2.16l-1.024-0.897l-3.233,0.929l-2.521,0.521l-10.235,2.273l-0.332-2.36l0.322-5.242l2.122-0.44L424.542,77.54
	L424.542,77.54z"/>
<path id="TN" fill="#D3D3D3" stroke="#FFFFFF" stroke-width="0.75" d="M345.938,159.814l-25.69,2.48l-7.803,0.881l-2.287,0.255
	l-1.916-0.014l-0.108,2.029l-4.054,0.131l-3.441,0.32l-4.004-0.062l-0.7,3.501l-0.84,2.714l-1.631,1.362l-0.668,2.168l-0.159,1.28
	l-2.002,1.121l0.721,1.761l-0.479,2.161l-0.48,0.392l53.547-5.153l0.199-1.958l0.896-0.738l1.403-0.371l0.333-1.84l2.028-1.339
	l2.003-0.74l2.022-1.768l2.196-1.002l0.258-1.52l2.012-1.973l0.273-0.056c0,0,0.016,0.561,0.415,0.561
	c0.4,0,0.962,0.175,0.962,0.175l1.118-1.776l1.025-0.319l1.128,0.146l0.791-1.749l1.463-1.309l0.209-0.961l0.153-1.838l-1.063-0.098
	l-1.288,1.004l-3.462,0.016l-9.089,1.181L345.938,159.814L345.938,159.814z"/>
<path id="AR" fill="#D3D3D3" stroke="#FFFFFF" stroke-width="0.75" d="M295.019,172.092l-1.971,0.354l-2.531-0.313l0.209-0.793
	l1.475-1.271l0.467-1.811l-0.905-1.472l-38.822,1.246l0.793,3.395v4.074l0.679,5.435l0.113,18.73l1.133,0.962l1.47-0.679
	l1.358,0.566l0.338,3.254l27.536-0.564l0.565-1.034l-0.141-1.758l-0.904-1.473l0.792-0.734l-0.792-1.243l0.34-1.242l0.677-2.775
	l1.248-1.021l-0.341-1.131l1.811-2.66l1.358-0.678l-0.056-0.738l-0.171-0.905l1.414-2.772l1.189-0.621l0.189-1.697l0.878-0.614
	l-1.557-0.239l-0.664-1.986l1.388-1.176l0.272-1l0.634-2.004L295.019,172.092L295.019,172.092z"/>
<path id="MO" fill="#D3D3D3" stroke="#FFFFFF" stroke-width="0.75" d="M277.499,125.09l-1.247-1.528l-0.565-1.132l-31.861,1.188
	l-1.132,0.058l0.623,1.244l-0.113,1.132l1.244,1.924l1.528,2.037l1.527,1.358l1.07,0.113l0.741,0.453v1.471l-0.905,0.792
	l-0.228,1.131l1.02,1.698l1.246,1.472l1.245,0.905l0.679,5.772l0.155,17.857l0.113,2.322l0.227,2.664l11.106-0.43l11.487-0.339
	l10.301-0.396l5.77-0.114l1.074,1.697l-0.34,1.636l-1.527,1.189l-0.284,0.911l2.662,0.226l1.929-0.34l0.851-2.72l0.323-2.898
	l1.038-1.266l1.286-0.736l0.023-1.51l0.505-0.96l-0.84-1.259l-0.659,0.488l-0.986-1.103l-0.636-2.356l0.396-1.247l-0.962-1.696
	l-0.907-2.266l-2.376-0.396l-3.45-2.772l-0.851-2.037l0.396-1.585l1.021-2.999l0.227-1.417l-0.965-0.511l-3.395-0.395l-0.509-0.848
	l-0.055-2.094l-2.717-1.699l-3.454-3.847l-1.132-3.622l-0.113-2.092L277.499,125.09L277.499,125.09z"/>
<path id="GA" fill="#D3D3D3" stroke="#FFFFFF" stroke-width="0.75" d="M333.864,178.279v1.08l0.081,1.041l0.319,1.68l1.681,3.923
	l1.201,4.883l0.721,3.04l0.8,2.401l0.72,3.441l1.041,3.122l1.28,1.68l0.24,1.681l0.961,0.4l0.079,1.04l-0.88,2.401l-0.24,1.601
	l-0.08,0.961l0.8,2.16l0.16,2.642l-0.399,1.199l0.32,0.401l0.72,0.4l0.101,1.593l1.105,1.659l1.115,1.069l3.922,0.079l5.356-0.318
	l10.649-0.641l2.696-0.334l2.267,0.014l0.08,1.44l1.281,0.4l0.158-2.161l-0.8-2.24l0.56-0.801l2.882,0.399l2.465,0.157l-0.384-3.117
	l1.12-4.963l0.721-2.081l-0.241-1.279l1.65-3.093l-0.252-0.669l-0.946,0.35l-1.281-0.641l-0.32-1.04l-0.641-1.761l-1.119-1.041
	l-1.281-0.319l-0.8-2.401l-1.448-3.137l-2.08-0.96l-1.041-0.96l-0.64-1.28l-1.041-0.961l-1.121-0.641l-1.12-1.44l-1.521-1.12
	l-2.241-0.881l-0.24-0.72l-1.2-1.441l-0.24-0.721l-1.681-2.461l-1.743,0.05l-1.859-1.166l-0.702-0.642l-0.159-0.879l0.43-0.96
	l1.103-0.551l-0.313-1.039L333.864,178.279L333.864,178.279z"/>
<path id="SC" fill="#D3D3D3" stroke="#FFFFFF" stroke-width="0.75" d="M379.733,204.327l-0.88,0.48l-1.279-0.642l-0.321-1.04
	l-0.641-1.761l-1.119-1.041l-1.281-0.319l-0.8-2.401l-1.361-2.96l-2.081-0.961l-1.04-0.961l-0.641-1.281l-1.04-0.959l-1.12-0.64
	l-1.121-1.441l-1.521-1.121l-2.24-0.88l-0.239-0.721l-1.201-1.439l-0.24-0.722l-1.681-2.561l-1.68,0.079l-2.002-1.199l-0.64-0.64
	l-0.16-0.882l0.399-0.96l1.121-0.481l-0.253-1.132l2.856-1.157l4.512-2.272l3.851-0.399l7.977-0.21l1.306,0.931l0.831,1.662
	l2.131-0.302l6.243-0.72l1.439,0.4l6.244,3.761l5.002,4.021l-2.683,2.702l-1.281,3.041l-0.24,3.121l-0.8,0.4l-0.56,1.36l-1.2,0.32
	l-1.041,1.761l-1.361,1.36l-1.12,1.681l-0.801,0.4l-1.761,1.681l-1.438,0.08l0.479,1.602l-2.481,2.721L379.733,204.327
	L379.733,204.327z"/>
<path id="KY" fill="#D3D3D3" stroke="#FFFFFF" stroke-width="0.75" d="M360.451,148.436l-1.135,1.188l-1.771,1.978l-2.438,2.706
	l-0.603,0.849l-0.03,1.04l-2.168,1.072l-2.802,1.68l-3.58,0.893l-25.678,2.425l-7.804,0.88l-2.287,0.253l-1.915-0.014l-0.111,2.09
	l-4.051,0.071l-3.441,0.32l-3.954-0.029l0.599-0.653l1.238-0.765l0.111-1.583l0.453-0.904l-0.796-1.258l0.397-0.944l1.12-0.882
	l1.041-0.319l1.36,0.642l1.761,0.64l0.56-0.161l0.081-1.12l-0.64-1.2l0.159-1.12l0.961-0.721l1.279-0.319l0.802-0.321l-0.4-0.879
	l-0.32-0.962l0.744-0.493c0.002-0.018,0.622-1.743,0.614-1.81l1.512-0.733l2.635-0.479l2.223-0.24l0.69,0.806l0.757,0.431
	l0.787-1.538l1.578-0.635l1.092,0.734l0.203,0.495l0.581-0.13l-0.08-1.462l1.549-0.866l1.063-0.531l0.758,0.822l1.643-0.022
	l0.292-0.778l-0.184-1.121l1.288-1.979l2.365-1.702l0.35-2.394l1.447-0.226l1.878-0.814l1.209-0.846l-0.098-0.775l-0.566-0.72
	l0.281-1.482l2.071-0.059l1.138-0.369l1.657,0.707l1.019,2.161l2.54,0.006l1.016,1.092l0.8-0.072l1.287-0.634l2.594,0.285
	l1.274,0.107l0.836-1.018l1.296-0.707l0.931-0.35l0.321,1.405l1.011,0.523l1.309,1.031l0.058,2.809l0.4,0.778l1.282,0.771
	l0.382,1.135l2.06,1.702l0.895,1.794L360.451,148.436L360.451,148.436z"/>
<path id="AL" fill="#D3D3D3" stroke="#FFFFFF" stroke-width="0.75" d="M313.574,230.195l-0.739-7.092l-1.359-9.282l0.08-6.964
	l0.4-15.366l-0.08-8.243l0.082-3.179l22.022-1.791l-0.074,1.08l0.081,1.041l0.319,1.68l1.681,3.922l1.201,4.883l0.721,3.041
	l0.799,2.4l0.722,3.441l1.041,3.123l1.279,1.68l0.24,1.681l0.961,0.4l0.08,1.04l-0.881,2.4l-0.239,1.601l-0.081,0.961l0.801,2.16
	l0.16,2.643l-0.4,1.199l0.32,0.401l0.721,0.399l0.162,1.431l-2.771-0.177l-3.361,0.321l-12.646,1.441l-5.154,0.696l-0.109,1.424
	l0.88,0.882l1.279,0.96l0.289,3.928l-2.744,1.274l-1.36-0.16l1.36-0.961v-0.48l-1.521-2.96l-1.12-0.321l-0.721,2.162l-0.64,1.36
	l-0.32-0.08H313.574L313.574,230.195z"/>
<path id="LA" fill="#D3D3D3" stroke="#FFFFFF" stroke-width="0.75" d="M302.019,229.574l-1.626-1.568l0.501-2.723l-0.327-0.443
	l-4.586,0.5l-12.391,0.227l-0.339-1.185l0.452-4.187l1.642-2.943l2.49-4.303l-0.284-1.188l0.622-0.338l0.229-0.966l-1.133-1.018
	l-0.056-0.962l-0.906-2.151l-0.073-3.139l-27.463,0.458l0.015,4.738l0.339,4.643l0.341,1.923l1.244,2.038l0.453,2.489l2.151,2.718
	l0.111,1.583l0.34,0.341l-0.34,4.187l-1.471,2.491l0.792,1.018l-0.34,1.245l-0.339,3.622l-0.679,1.584l0.06,1.791l2.32-0.753
	l5.998,0.103l5.121,1.762l3.202,0.56l1.84-0.72l1.602,0.561l1.6,0.48l0.4-1.041l-1.601-0.562l-1.281,0.241l-1.359-0.801
	c0,0,0.08-0.64,0.399-0.72c0.32-0.08,1.521-0.48,1.521-0.48l0.88,0.72l0.88-0.479l1.602,0.32l0.72,1.199l0.159,1.122l2.242,0.159
	l0.879,0.882l-0.398,0.8l-0.642,0.399l0.801,0.8l4.162,1.762l1.762-0.64l0.479-1.201l1.28-0.321l0.88-0.72l0.641,0.48l0.399,1.44
	l-1.119,0.4l0.32,0.32l1.681-0.64l1.119-1.682l0.4-0.24l-1.04-0.159l0.4-0.8l-0.08-0.722l1.04-0.239l0.561-0.641l0.321,0.399
	c0,0-0.082,1.521,0.318,1.521s2.081,0.321,2.081,0.321l2.002,0.959l0.479,0.722h1.441l0.56,0.479l1.12-1.521v-0.722h-0.641
	l-1.681-1.359l-2.881-0.4l-1.601-1.119l0.561-1.361l1.12,0.16l0.08-0.32l-0.879-0.48v-0.239h1.6l0.881-1.521l-0.642-0.96
	l-0.159-1.361l-0.721,0.08l-0.959,1.041l-0.321,1.28l-1.521-0.32l-0.48-0.88l0.881-0.961l0.941-1.706l-0.524-1.193L302.019,229.574
	L302.019,229.574z"/>
<path id="MS" fill="#D3D3D3" stroke="#FFFFFF" stroke-width="0.75" d="M313.699,229.664l-0.126,0.623h-2.562l-0.72-0.401l-1.04-0.16
	l-3.362,0.961l-0.881-0.399l-1.279,2.08l-0.546,0.385l-0.557-1.231l-0.566-1.924l-1.698-1.585l0.566-2.745l-0.338-0.453
	l-0.907,0.114l-3.919,0.432l-12.152,0.185l-0.382-1.101l0.433-4.147l1.543-2.808l2.588-4.527l-0.221-1.205l0.612-0.325l0.216-0.95
	l-1.147-1.029l-0.058-1.061l-0.908-2.04l-0.054-2.952l0.657-1.228l-0.111-1.691l-0.876-1.526l0.756-0.733l-0.777-1.237l0.226-0.818
	l0.782-3.23l1.23-1.008l-0.317-1.173l1.811-2.625l1.402-0.671l-0.109-0.83l-0.144-0.832l1.424-2.757l1.162-0.609l0.075-0.442
	l18.487-1.921l0.092,3.11l0.079,8.243l-0.399,15.367l-0.08,6.962l1.36,9.284L313.699,229.664L313.699,229.664z"/>
<path id="IA" fill="#D3D3D3" stroke="#FFFFFF" stroke-width="0.75" d="M282.822,101.065l0.131,1.379l1.101,0.286l0.474,0.606
	l0.247,0.918l1.878,1.663l0.339,1.184l-0.334,1.695l-0.783,1.6l-0.396,1.357l-1.075,0.792l-0.85,0.283l-2.763,0.922l-0.688,1.905
	l0.361,0.679l0.911,0.833l-0.141,1.999l-0.873,0.761l-0.382,0.813l0.063,1.375l-0.935,0.226l-0.805,0.547l-0.137,0.669l0.137,1.047
	l-0.768,0.553l-1.223-1.551l-0.626-1.213l-32.543,1.245l-0.455,0.082l-1.016-2.235l-0.112-3.282l-0.794-2.038l-0.338-2.604
	l-1.133-1.811l-0.454-2.377l-1.357-3.735l-0.565-2.66l-0.68-1.075l-0.792-1.358l0.968-2.398l0.679-2.829l-1.358-1.019l-0.226-1.359
	l0.452-1.244h0.849l40.921-0.629l0.412,2.07l1.114,0.773l0.128,0.704l-1.005,1.678l0.095,1.587l1.245,1.88l1.251,0.64l1.524,0.25
	L282.822,101.065L282.822,101.065z"/>
<path id="MN" fill="#D3D3D3" stroke="#FFFFFF" stroke-width="0.75" d="M236.31,66.033l-0.228-4.188l-0.905-3.622l-0.904-6.678
	l-0.228-4.867l-0.905-1.698l-0.792-2.49v-5.093l0.339-1.924l-0.901-2.699l14.918,0.018l0.16-4.082l0.32-0.08l1.12,0.241l0.96,0.4
	l0.4,2.721l0.721,3.041l0.801,0.8h2.4l0.16,0.721l3.121,0.159v1.041h2.401l0.16-0.64l0.56-0.56l1.121-0.32l0.64,0.479h1.441
	l1.921,1.282l2.641,1.2l1.2,0.241l0.24-0.48l0.721-0.24l0.24,1.44l1.28,0.641l0.24-0.241l0.64,0.081v1.041l1.281,0.48h1.521
	l0.801-0.4l1.6-1.601l1.282-0.24l0.399,0.88l0.24,0.64h0.479l0.479-0.4l4.402-0.16l0.881,1.52h0.319l0.354-0.537l2.197-0.183
	l-0.303,1.128l-1.95,0.91l-4.577,2.01l-2.364,0.993l-1.521,1.281l-1.2,1.761l-1.12,1.92l-0.881,0.4l-2.24,2.481l-0.641,0.08
	l-2.143,1.365l-1.22,1.586l-0.112,1.58l0.046,3.982l-0.681,0.835l-2.516,1.862l-1.104,2.961l1.421,1.105l0.337,1.598l-0.919,1.604
	l0.086,1.855l0.182,3.332l1.5,1.486h1.648l0.936,1.551l1.673,0.249l1.911,2.808l3.508,2.038l1.062,1.424l0.333,3.188l-40.207,0.566
	l-0.167-17.662l-0.227-1.472l-2.037-1.698l-0.565-0.906V69.09l1.02-0.792l0.679-0.68L236.31,66.033L236.31,66.033z"/>
<path id="OK" fill="#D3D3D3" stroke="#FFFFFF" stroke-width="0.75" d="M189.33,161.086l-8.26-0.631l-0.435,5.423l10.131,0.572
	l15.87,0.646l-1.156,12.09l-0.227,8.827l0.114,0.792l2.15,1.812l1.019,0.565l0.34-0.112l0.339-1.02l0.679,0.905h1.019v-0.679
	l1.358,0.679l-0.227,1.925l2.037,0.114l1.245,0.565l2.037,0.339l1.245,0.905l1.132-1.019l1.698,0.34l1.245,1.697h0.453v1.132
	l1.132,0.34l1.132-1.132l0.905,0.339h1.246l0.453,1.246l3.119,1.029l0.68-0.34l0.905-2.037h0.565l0.566,1.019l2.038,0.34
	l1.811,0.679l1.471,0.454l0.906-0.454l0.34-1.245h2.15l1.019,0.453l1.358-1.02h0.565l0.339,0.793h2.038l0.792-1.019l0.905,0.226
	l1.019,1.245l1.586,0.906l1.584,0.452l0.961,0.555l-0.192-18.426l-0.68-5.433l-0.08-4.393l-0.712-3.236l-0.387-3.555l-0.032-1.889
	l-6.008,0.157l-22.977-0.227l-22.297-1.018L189.33,161.086L189.33,161.086z"/>
<path id="TX" fill="#D3D3D3" stroke="#FFFFFF" stroke-width="0.75" d="M179.983,165.913l11.233,0.538l15.393,0.566l-1.156,11.612
	l-0.147,8.987l0.034,1.031l2.15,1.89l0.984,0.717l0.586-0.278l0.185-0.899l0.565,0.894l1.045,0.021l-0.001-0.716l0.826,0.479
	l0.564,0.203l-0.178,1.964l2.024,0.047l1.448,0.593l1.958,0.26l1.179,1.029l1.051-1.028l1.845,0.305l1.099,1.597l0.532,0.158
	l-0.079,0.974l1.095,0.392l1.154-1.018l1.057,0.306l1.103,0.018l0.462,1.205l3.133,1.047l0.788-0.38l0.737-2.067h0.169l0.448,0.04
	l0.609,1.023l1.944,0.33l1.652,0.556l1.696,0.592l0.912-0.482l0.354-1.245l2.204,0.021l0.896,0.461l1.386-1.043l0.547,0.021
	l0.421,0.795h2.007l0.752-1.003l0.925,0.2l0.963,1.191l1.743,1.012l1.416,0.4l0.749,0.396l1.212,0.989l1.506-0.658l1.332,0.565
	l0.28,3.022l-0.021,4.804l0.34,4.718l0.348,1.785l1.324,2.189l0.445,2.45l2.087,2.742l0.096,1.557l0.369,0.389l-0.36,4.149
	l-1.422,2.479l0.76,1.065l-0.313,1.159l-0.33,3.664l-0.745,1.653l0.146,1.733l-2.804,0.784l-4.883,2.241l-0.48,0.961l-1.28,0.96
	l-1.04,0.722l-0.641,0.399l-2.801,2.64l-1.36,1.041l-2.642,1.601l-2.801,1.201l-3.121,1.681l-0.881,0.72l-2.88,1.762l-1.682,0.319
	l-1.921,2.722l-2.001,0.16l-0.48,0.961l1.12,0.96l-0.72,2.721l-0.64,2.24l-0.561,1.921l-0.399,2.241l0.399,1.2l0.88,3.442l0.48,3.04
	l0.88,1.361l-0.48,0.72l-1.521,0.962l-2.801-1.921l-2.721-0.561l-0.641,0.239l-1.6-0.319l-2.081-1.521l-2.562-0.559l-3.761-1.682
	l-1.041-1.922l-0.64-3.2l-1.601-0.962l-0.32-1.119l0.32-0.32l0.161-1.682l-0.641-0.319l-0.32-0.479l0.64-2.161l-0.801-1.121
	l-1.6-0.64l-1.681-2.162l-1.761-3.281l-2.081-1.279l0.08-0.961l-2.641-6.083l-0.401-2.081l-0.88-0.959l-0.08-0.721l-2.961-2.641
	l-1.28-1.521v-0.56l-1.28-1.04l-3.362-0.561l-3.681-0.321l-1.521-1.12l-2.24,0.881l-1.761,0.721l-1.121,1.6l-0.48,1.841
	l-2.161,3.042l-1.2,1.2l-1.28-0.48l-0.881-0.56l-0.96-0.321l-1.921-1.119v-0.32l-0.881-0.961l-2.561-1.041l-3.682-3.84l-1.121-2.322
	v-4.001l-1.6-3.202l-0.24-1.36l-0.8-0.48l-0.561-1.041l-2.481-1.04l-0.641-0.799l-3.521-3.923l-0.641-1.6l-2.32-1.121l-0.721-2.161
	l-1.28-1.441l-0.96-0.239l-0.321-2.315l3.961,0.339l14.375,1.358l14.374,0.793l1.106-9.635l1.924-27.504l0.792-9.281l0.679,0.015
	 M229.604,279.6l-0.28-3.522l-1.36-3.562l-0.281-3.481l0.761-4.082l1.64-3.401l1.721-2.68l1.56-1.762l0.321,0.12l-2.361,3.281
	l-2.161,3.241l-1,3.281l-0.161,2.562l0.441,3.041l1.28,3.562l0.24,2.562l0.081,0.719L229.604,279.6L229.604,279.6z"/>
<path id="NM" fill="#D3D3D3" stroke="#FFFFFF" stroke-width="0.75" d="M143.688,212.173l-0.384-2.351l4.279,0.26l14.938,1.459
	l13.5,0.835l1.096-9.261l1.91-27.662l0.861-9.6l0.778,0.063l0.408-5.525l-51.489-5.266l-8.662,59.624l7.654,0.984l0.64-4.963
	L143.688,212.173L143.688,212.173z"/>
<path id="KS" fill="#D3D3D3" stroke="#FFFFFF" stroke-width="0.75" d="M252.47,162.848l-6.246,0.102l-22.819-0.227l-22.059-1.02
	l-12.193-0.622l1.928-31.979l10.933,0.334l19.945,0.416l21.933,0.489h2.522l1.081,1.071l0.999-0.011l0.812,0.501l-0.031,1.489
	l-0.904,0.854l-0.165,1.105l0.913,1.685l1.462,1.582l1.151,0.799l0.645,5.565L252.47,162.848L252.47,162.848z"/>
<path id="NE" fill="#D3D3D3" stroke="#FFFFFF" stroke-width="0.75" d="M241.686,121.42l1.6,3.476l-0.063,1.139l1.712,2.72
	l1.346,1.561h-2.499l-21.527-0.465l-20.192-0.44l-11.017-0.388l0.531-10.559l-15.999-1.446l2.15-21.788l7.696,0.51l9.959,0.565
	l8.829,0.566l11.771,0.566l5.32-0.227l1.019,1.131l2.377,1.472l0.565,0.452l2.151-0.679l1.924-0.226l1.358-0.113l0.906,0.679
	l2.009,0.793l1.471,0.792l0.227,0.792l0.452,1.019h0.905l0.396,0.022l0.442,2.319l1.446,4.192l0.284,1.86l1.249,1.869l0.281,2.531
	l0.797,2.1L241.686,121.42L241.686,121.42z"/>
<path id="SD" fill="#D3D3D3" stroke="#FFFFFF" stroke-width="0.75" d="M236.908,103.263l-0.023-0.287l-1.435-2.399l0.922-2.333
	l0.738-2.914l-1.377-1.029l-0.19-1.358l0.393-1.265l1.577,0.008l-0.06-2.479l-0.166-14.938l-0.306-1.865l-2.015-1.649l-0.488-0.83
	l-0.031-0.796l1.002-0.757l0.759-0.825l0.122-1.316l-28.842-0.792l-27.129-1.708l-2.637,31.532l7.224,0.448l9.877,0.596l8.783,0.46
	l11.771,0.646l5.932-0.21l0.974,1.112l2.572,1.61l0.378,0.358l2.248-0.719l3.238-0.305l0.829,0.662l2.081,0.79l1.459,0.81
	l0.197,0.735l0.515,1.109L236.908,103.263L236.908,103.263z"/>
<path id="ND" fill="#D3D3D3" stroke="#FFFFFF" stroke-width="0.75" d="M236.344,66.081l-0.307-4.175l-0.829-3.375l-0.936-6.448
	l-0.228-5.439l-0.861-1.522l-0.868-2.573l0.015-5.17l0.308-1.894l-0.907-2.707l-14.18-0.279l-9.204-0.32l-13.125-0.641l-11.36-1.056
	l-3.462,33.257l27.196,1.655L236.344,66.081L236.344,66.081z"/>
<path id="WY" fill="#D3D3D3" stroke="#FFFFFF" stroke-width="0.75" d="M179.445,73.188L126.6,66.526l-6.973,43.792l56.074,6.726
	L179.445,73.188z"/>
<path id="MT" fill="#D3D3D3" stroke="#FFFFFF" stroke-width="0.75" d="M183.817,30.46l-15.186-1.39l-14.486-1.761l-14.486-2.001
	l-16.006-2.641l-9.124-1.681l-16.201-3.432l-2.218,10.569l1.698,3.734l-0.68,2.264l0.906,2.264l1.584,0.679l2.288,5.332l1.334,1.572
	l0.226,0.566l1.698,0.566l0.226,1.019l-3.508,8.715v1.245l1.245,1.584h0.453l2.377-1.472l0.339-0.565l0.793,0.339l-0.114,2.604
	l1.358,6.225l1.471,1.245l0.453,0.339l0.906,1.133l-0.227,1.697l0.34,1.698l0.565,0.453l1.133-1.132h1.358l1.584,0.792l1.245-0.453
	h2.038l1.811,0.792l1.357-0.226l0.227-1.472l1.471-0.34l0.68,0.679l0.226,1.585l0.707,0.413l0.934-5.463l52.847,6.648L183.817,30.46
	L183.817,30.46z"/>
<path id="CO" fill="#D3D3D3" stroke="#FFFFFF" stroke-width="0.75" d="M189.175,161.156l2.428-42.737l-56.136-6.26l-6.046,43.537
	L189.175,161.156z"/>
<path id="ID" fill="#D3D3D3" stroke="#FFFFFF" stroke-width="0.75" d="M74.54,89.628l4.342-17.437l0.679-2.093l1.246-2.943
	l-0.623-1.131l-1.245,0.056l-0.396-0.509l0.227-0.566l0.169-1.527l2.207-2.716l0.905-0.227l0.567-0.566l0.282-1.584l0.453-0.339
	l1.924-2.887l1.924-2.15l0.113-1.867l-1.698-1.302l-0.76-2.178L91.602,16.3l6.692,1.251l-2.182,10.586l1.762,3.706l-0.782,2.308
	l0.975,2.297l1.554,0.622l1.899,4.731l1.738,2.197l0.251,0.566l1.654,0.565l0.183,1.039l-3.452,8.603l-0.081,1.27l1.303,1.645
	l0.447-0.024l2.432-1.498l0.336-0.542l0.773,0.327l-0.138,2.65l1.357,6.229l1.939,1.573l0.833,1.072l-0.355,2.022l0.528,1.389
	l0.526,0.541l1.227-1.164l1.41,0.024l1.445,0.662l1.376-0.338l1.878-0.079l1.97,0.792l1.358-0.147l0.246-1.504l1.452-0.378
	l0.624,0.75l0.219,1.458l0.705,0.601l-4.152,26.541C121.551,98.641,78.002,90.373,74.54,89.628L74.54,89.628z"/>
<path id="UT" fill="#D3D3D3" stroke="#FFFFFF" stroke-width="0.75" d="M129.502,155.779l-41.461-5.876l10.192-55.717l23.16,4.33
	l-0.735,5.263l-1.145,6.521l3.866,0.459l8.122,0.894l4.065,0.424L129.502,155.779z"/>
<path id="AZ" fill="#D3D3D3" stroke="#FFFFFF" stroke-width="0.75" d="M72.774,191.684l-1.301,1.07l-0.16,0.719l0.24,0.481
	l9.364,5.281l6.002,3.763l7.283,4.241l8.323,4.963l6.083,1.199l12.353,1.341l8.543-58.978l-41.455-5.9l-1.531,8.126l-0.796,0.008
	l-0.849,1.302l-1.245-0.058l-0.623-1.358l-1.358-0.169l-0.453-0.566h-0.453l-0.452,0.283l-0.962,0.51l-0.057,3.452l-0.113,0.849
	l-0.283,6.226l-0.735,1.074l-0.283,1.642l1.359,2.434l0.622,2.886l0.396,0.51l0.509,0.283l-0.056,1.132l-0.792,0.679l-1.698,0.849
	l-0.962,0.963l-0.735,1.811l-0.283,2.434l-1.415,1.358l-1.019,0.339l0.067,0.412l-0.226,0.849l0.226,0.396l1.811,0.283l-0.283,1.357
	l-0.736,1.076L72.774,191.684L72.774,191.684z"/>
<path id="NV" fill="#D3D3D3" stroke="#FFFFFF" stroke-width="0.75" d="M98.261,94.129l-11.703,63.776l-0.907,0.174l-0.779,1.19
	l-1.174,0.005l-0.729-1.357l-1.296-0.188l-0.381-0.549l-0.514-0.026l-1.375,0.814l-0.154,3.359l-0.179,2.86l-0.173,4.254
	l-0.716,1.033l-1.208-0.532l-34.199-51.585l9.401-33.46L98.261,94.129L98.261,94.129z"/>
<path id="OR" fill="#D3D3D3" stroke="#FFFFFF" stroke-width="0.75" d="M74.661,89.158l4.381-17.23l0.52-2.093l1.165-2.784
	l-0.304-0.576l-1.246-0.023l-0.634-0.827l0.227-0.725l0.249-1.608l2.208-2.716l0.905-0.544l0.566-0.566l0.736-1.765l2.003-2.807
	l1.766-1.912l0.113-1.708l-1.618-1.222l-0.883-2.299l-6.27-1.788l-7.47-1.754l-7.64,0.057l-0.227-0.68l-2.716,1.019l-2.208-0.284
	l-1.188-0.792l-0.622,0.339l-2.321-0.113l-0.849-0.679l-2.603-1.019l-0.396,0.057l-2.151-0.736l-0.962,0.905l-3.056-0.169
	l-2.943-2.037l0.339-0.396l0.114-3.849l-1.132-1.924l-2.038-0.283l-0.339-1.245l-1.166-0.231l-2.871,1.019l-1.12,3.201l-1.601,4.963
	l-1.601,3.201l-2.481,6.963l-3.202,6.723l-4.001,6.243l-0.96,1.44l-0.4,4.242l0.191,5.98L74.661,89.158L74.661,89.158z"/>
<path id="WA" fill="#D3D3D3" stroke="#FFFFFF" stroke-width="0.75" d="M51.566,6.025l2.161,0.721l4.802,1.36l4.241,0.96l9.925,2.801
	l11.364,2.801l7.537,1.588l-6.749,31.479l-6.162-1.745l-7.677-1.768l-7.541,0.016l-0.225-0.666l-2.772,1.079l-2.275-0.364
	l-1.063-0.784l-0.65,0.326l-2.345-0.07l-0.841-0.668l-2.605-1.046l-0.364,0.073l-2.173-0.755l-0.937,0.9l-3.103-0.147l-2.934-2.043
	l0.386-0.461l0.06-3.8l-1.13-1.901l-2.037-0.301l-0.336-1.243L37,32.14l-1.76,0.609l-1.121-1.594l0.16-1.44l1.361-0.161l0.8-2.001
	l-1.281-0.56l0.081-1.841l2.16-0.32l-1.36-1.361l-0.721-3.521l0.321-1.44v-3.922l-0.88-1.6l1.12-4.642l1.041,0.24l1.201,1.44
	l1.36,1.28l1.601,0.961l2.241,1.041l1.521,0.32l1.441,0.721l1.681,0.48l1.12-0.08v-1.201l0.641-0.56l1.041-0.641l0.16,0.561
	l0.16,0.88l-1.12,0.241l-0.16,1.04l0.88,0.72l0.561,1.2l0.32,0.961l0.721-0.08l0.08-0.64l-0.48-0.64l-0.24-1.601l0.4-0.881
	l-0.32-0.72v-1.12l0.88-1.761l-0.56-1.281l-1.2-2.401l0.16-0.4L51.566,6.025z M46.885,8.985l1-0.081l0.24,0.681l0.761-0.8h1.16
	l0.401,0.76l-0.76,0.841l0.32,0.399l-0.361,1.001l-0.68,0.2c0,0-0.44,0.04-0.44-0.12c0-0.161,0.72-1.281,0.72-1.281l-0.841-0.28
	l-0.159,0.72l-0.361,0.321l-0.76-1.121L46.885,8.985z"/>
<path id="CA" fill="#D3D3D3" stroke="#FFFFFF" stroke-width="0.75" d="M72.667,191.472l1.951-0.241l0.736-0.996l0.269-1.456
	l-1.758-0.292l-0.254-0.331l0.236-1.006l-0.079-0.292l0.951-0.308l1.507-1.402l0.288-2.474l0.683-1.685l0.962-1.071l1.742-0.786
	l0.819-0.795l0.034-1.045l-0.492-0.286l-0.506-0.532l-0.573-2.894l-1.329-2.393l0.28-1.734l-1.198-0.511l-34.19-51.575l9.358-33.468
	l-33.209-7.771l-0.746,2.343l-0.081,3.682l-2.561,5.842l-1.521,1.281l-0.16,0.561l-0.881,0.4l-0.72,2.081l-0.401,1.6l1.362,2.081
	l0.799,2.081l0.561,1.761l-0.161,3.201l-0.88,1.521l-0.32,2.881l-0.481,1.84l0.88,1.921l1.36,2.241l1.121,2.401l0.64,2.001
	l-0.16,1.601l-0.16,0.24v1.041l2.801,3.121l-0.241,1.201l-0.32,1.12l-0.32,0.961l0.08,4.082l1.04,1.841l0.96,1.28l1.361,0.24
	l0.48,1.361l-0.561,1.76l-1.04,0.8h-0.56l-0.4,1.921l0.24,1.44l1.601,2.161l0.8,2.642l0.721,2.32l0.64,1.52l1.681,2.881l0.72,1.282
	l0.24,1.438l0.8,0.482v1.2l-0.4,0.96l-0.881,3.521l-0.24,0.96l1.201,1.36l2.081,0.239l2.241,0.882l1.921,1.04h1.44l1.441,1.521
	l1.281,2.401l0.56,1.121l1.921,1.04l2.401,0.4l0.72,1.04l0.321,1.601l-0.721,0.319l0.16,0.48l1.601,0.4l1.36,0.079l1.565-0.833
	l1.92,2.08l0.4,1.12l1.28,2.081l0.161,1.601v4.642l0.239,0.881l4.962,0.721l9.764,1.36L72.667,191.472L72.667,191.472z
	 M29.033,169.829l0.641,0.76l-0.08,0.642l-1.602-0.041l-0.28-0.601l-0.32-0.72L29.033,169.829L29.033,169.829z M29.994,169.829
	l0.6-0.32l1.761,1.041l1.521,0.599l-0.44,0.321l-2.241-0.12l-0.8-0.8L29.994,169.829L29.994,169.829z M40.238,179.632l0.881,1.161
	l0.4,0.48l0.76,0.28l0.28-0.72l-0.48-0.881l-1.321-1.001l-0.52,0.081V179.632z M39.518,183.914l0.881,1.561l0.6,0.962l-0.72,0.119
	l-0.641-0.6c0,0-0.36-0.722-0.36-0.92c0-0.202,0-1.081,0-1.081L39.518,183.914L39.518,183.914z"/>
</svg>
